<mxfile host="app.diagrams.net" agent="Mozilla/5.0 (Windows NT 10.0; Win64; x64) AppleWebKit/537.36 (KHTML, like Gecko) Chrome/133.0.0.0 Safari/537.36 Edg/133.0.0.0" version="26.0.16">
  <diagram name="Pagina-1" id="QwmGnS9-fZA-8RNdgStZ">
    <mxGraphModel dx="1042" dy="565" grid="1" gridSize="10" guides="1" tooltips="1" connect="1" arrows="1" fold="1" page="1" pageScale="1" pageWidth="827" pageHeight="1169" math="0" shadow="0">
      <root>
        <mxCell id="0" />
        <mxCell id="1" parent="0" />
        <mxCell id="AZ-DMNiLDy1ydZZ7lLKW-1" value="User" style="shape=umlActor;verticalLabelPosition=bottom;verticalAlign=top;html=1;outlineConnect=0;" vertex="1" parent="1">
          <mxGeometry x="100" y="180" width="30" height="60" as="geometry" />
        </mxCell>
        <mxCell id="AZ-DMNiLDy1ydZZ7lLKW-2" value="Compute&amp;nbsp; idealBodyWeight" style="ellipse;whiteSpace=wrap;html=1;" vertex="1" parent="1">
          <mxGeometry x="220" y="50" width="120" height="80" as="geometry" />
        </mxCell>
        <mxCell id="AZ-DMNiLDy1ydZZ7lLKW-3" value="Compute&amp;nbsp; basalMetabolicRate" style="ellipse;whiteSpace=wrap;html=1;" vertex="1" parent="1">
          <mxGeometry x="220" y="170" width="120" height="80" as="geometry" />
        </mxCell>
        <mxCell id="AZ-DMNiLDy1ydZZ7lLKW-6" value="" style="endArrow=none;html=1;rounded=0;" edge="1" parent="1" target="AZ-DMNiLDy1ydZZ7lLKW-2">
          <mxGeometry width="50" height="50" relative="1" as="geometry">
            <mxPoint x="130" y="190" as="sourcePoint" />
            <mxPoint x="430" y="270" as="targetPoint" />
          </mxGeometry>
        </mxCell>
        <mxCell id="AZ-DMNiLDy1ydZZ7lLKW-15" value="" style="swimlane;startSize=0;" vertex="1" parent="1">
          <mxGeometry x="160" y="10" width="370" height="540" as="geometry" />
        </mxCell>
        <mxCell id="AZ-DMNiLDy1ydZZ7lLKW-16" value="HealthCalculator" style="text;html=1;align=center;verticalAlign=middle;whiteSpace=wrap;rounded=0;" vertex="1" parent="AZ-DMNiLDy1ydZZ7lLKW-15">
          <mxGeometry x="290" width="70" height="10" as="geometry" />
        </mxCell>
      </root>
    </mxGraphModel>
  </diagram>
</mxfile>
